<?xml version="1.0" encoding="UTF-8" standalone="no"?>
<!DOCTYPE svg PUBLIC "-//W3C//DTD SVG 1.1//EN" "http://www.w3.org/Graphics/SVG/1.1/DTD/svg11.dtd"><svg width="34"
    height="61" viewBox="0 0 34 61" version="1.1" xmlns="http://www.w3.org/2000/svg"
    xmlns:xlink="http://www.w3.org/1999/xlink" xml:space="preserve" xmlns:serif="http://www.serif.com/"
    style="fill-rule:evenodd;clip-rule:evenodd;stroke-linejoin:round;stroke-miterlimit:2;">
    <path
        d="M33.825,30.021c-0,-0.864 -0.346,-1.66 -1.004,-2.283l-27.392,-26.839c-0.621,-0.588 -1.383,-0.899 -2.283,-0.899c-1.763,0 -3.146,1.349 -3.146,3.147c-0,0.865 0.346,1.66 0.9,2.248l25.179,24.626l-25.179,24.626c-0.554,0.588 -0.9,1.349 -0.9,2.248c-0,1.798 1.383,3.148 3.146,3.148c0.9,-0.001 1.662,-0.312 2.283,-0.934l27.392,-26.805c0.658,-0.657 1.004,-1.418 1.004,-2.283Z"
        style="fill:#929296;fill-opacity:1;fill-rule:nonzero;" />
</svg>