<svg width="148" height="60" viewBox="0 0 148 60" fill="none" xmlns="http://www.w3.org/2000/svg">
<path d="M39.7391 30.1838C39.7391 28.4879 40.3062 27.0098 41.4406 25.7494C42.5865 24.489 43.9786 23.8588 45.6172 23.8588C46.7286 23.8588 47.7427 24.1739 48.6594 24.8041C49.5646 25.4228 50.2578 26.2134 50.7391 27.1759C51.2203 28.1384 51.4609 29.1525 51.4609 30.2181C51.4609 31.914 50.8937 33.3921 49.7594 34.6525C48.625 35.9015 47.2385 36.5259 45.6 36.5259C44.7521 36.5259 43.9615 36.3483 43.2281 35.9931C42.4833 35.6379 41.8589 35.1624 41.3547 34.5666C40.8505 33.9707 40.4552 33.2947 40.1687 32.5384C39.8823 31.7707 39.7391 30.9858 39.7391 30.1838ZM45.6 35.4259C46.9521 35.4259 48.0635 34.8931 48.9344 33.8275C49.7937 32.7619 50.2234 31.5473 50.2234 30.1838C50.2234 28.7973 49.788 27.5827 48.9172 26.54C48.0349 25.4973 46.9292 24.9759 45.6 24.9759C44.2365 24.9759 43.125 25.5088 42.2656 26.5744C41.4062 27.6285 40.9766 28.8317 40.9766 30.1838C40.9766 31.5817 41.412 32.802 42.2828 33.8447C43.1536 34.8989 44.2594 35.4259 45.6 35.4259ZM55.0082 34.5322C55.0082 35.4832 55.0082 37.3681 55.0082 40.1869C54.8134 40.1869 54.4181 40.1869 53.8222 40.1869C53.8222 38.0327 53.8222 33.7244 53.8222 27.2619C53.9941 27.2619 54.3493 27.2619 54.8878 27.2619C54.8878 27.5598 54.8878 28.1556 54.8878 29.0494C55.266 28.465 55.7587 27.9952 56.366 27.64C56.9847 27.2848 57.6321 27.1072 58.3082 27.1072C59.5342 27.1072 60.5655 27.5884 61.4019 28.5509C62.2384 29.502 62.6566 30.6077 62.6566 31.8681C62.6566 33.1858 62.267 34.3088 61.4878 35.2369C60.7087 36.1535 59.7118 36.6119 58.4972 36.6119C57.7639 36.6119 57.0936 36.4228 56.4863 36.0447C55.879 35.6666 55.3863 35.1624 55.0082 34.5322ZM61.4363 31.8681C61.4363 30.8713 61.104 30.0061 60.4394 29.2728C59.7748 28.5395 58.9727 28.1728 58.0332 28.1728C57.3915 28.1728 56.7498 28.402 56.1082 28.8603C55.4665 29.3301 55.0998 29.8572 55.0082 30.4416C55.0082 31.0603 55.0082 31.9999 55.0082 33.2603C55.2946 33.9249 55.7243 34.4749 56.2972 34.9103C56.8701 35.3457 57.4946 35.5634 58.1707 35.5634C59.1332 35.5634 59.9181 35.191 60.5253 34.4463C61.1326 33.7015 61.4363 32.8421 61.4363 31.8681ZM68.9194 36.6119C67.6132 36.6119 66.5189 36.1478 65.6366 35.2197C64.7658 34.2801 64.3304 33.1515 64.3304 31.8338C64.3304 30.5275 64.7658 29.416 65.6366 28.4994C66.5189 27.5713 67.6075 27.1072 68.9023 27.1072C70.22 27.1072 71.3085 27.5713 72.1679 28.4994C73.0158 29.416 73.4398 30.5218 73.4398 31.8166C73.4398 32.0686 73.434 32.2233 73.4226 32.2806C71.6809 32.2806 69.0684 32.2806 65.5851 32.2806C65.6653 33.266 66.0319 34.0853 66.6851 34.7384C67.3267 35.3801 68.0887 35.7009 68.971 35.7009C69.5668 35.7009 70.134 35.5463 70.6726 35.2369C71.1997 34.939 71.5721 34.5436 71.7898 34.0509C72.0189 34.1082 72.3684 34.1999 72.8382 34.3259C72.5517 34.9905 72.0476 35.5405 71.3257 35.9759C70.6038 36.3999 69.8017 36.6119 68.9194 36.6119ZM65.5507 31.4213C66.6736 31.4213 68.9309 31.4213 72.3226 31.4213C72.2424 30.4358 71.8814 29.628 71.2398 28.9978C70.5981 28.3676 69.8247 28.0525 68.9194 28.0525C68.0142 28.0525 67.2408 28.3676 66.5991 28.9978C65.9575 29.6395 65.608 30.4473 65.5507 31.4213ZM83.2776 36.44C83.0828 36.44 82.6875 36.44 82.0917 36.44C82.0917 35.5921 82.0917 33.8848 82.0917 31.3181C82.0917 30.241 81.9313 29.4504 81.6104 28.9463C81.2781 28.4535 80.7797 28.2072 80.1151 28.2072C79.4047 28.2072 78.7229 28.4535 78.0698 28.9463C77.4281 29.4504 76.9927 30.0749 76.7635 30.8197C76.7635 32.0686 76.7635 33.9421 76.7635 36.44C76.5688 36.44 76.1734 36.44 75.5776 36.44C75.5776 34.916 75.5776 31.8567 75.5776 27.2619C75.7609 27.2619 76.1219 27.2619 76.6604 27.2619C76.6604 27.6171 76.6604 28.3103 76.6604 29.3416C77.0385 28.677 77.5771 28.1384 78.276 27.7259C78.9865 27.3134 79.7484 27.1072 80.562 27.1072C81.5359 27.1072 82.2292 27.4509 82.6417 28.1384C83.0656 28.8145 83.2776 29.7942 83.2776 31.0775C83.2776 32.2692 83.2776 34.0567 83.2776 36.44ZM92.1596 23.9447C92.721 25.5489 93.8439 28.7515 95.5283 33.5525C96.0898 31.9483 97.207 28.7457 98.8799 23.9447C99.3038 23.9447 100.152 23.9447 101.424 23.9447C100.633 26.0301 99.0575 30.1952 96.6971 36.44C96.3075 36.44 95.5283 36.44 94.3596 36.44C93.5575 34.3546 91.9705 30.1895 89.5986 23.9447C90.0226 23.9447 90.8762 23.9447 92.1596 23.9447ZM107.085 36.6119C105.641 36.6119 104.472 36.1535 103.579 35.2369C102.685 34.3088 102.238 33.1916 102.238 31.8853C102.238 30.5332 102.679 29.3931 103.561 28.465C104.455 27.5254 105.635 27.0556 107.102 27.0556C108.557 27.0556 109.726 27.5197 110.608 28.4478C111.479 29.3759 111.915 30.4931 111.915 31.7994C111.915 32.1202 111.897 32.3838 111.863 32.59C110.282 32.59 107.904 32.59 104.73 32.59C104.788 33.289 105.051 33.8504 105.521 34.2744C105.991 34.6869 106.541 34.8931 107.171 34.8931C107.652 34.8931 108.105 34.7785 108.529 34.5494C108.941 34.3202 109.216 34.0166 109.354 33.6384C109.812 33.7645 110.488 33.9535 111.382 34.2056C111.038 34.9275 110.488 35.5119 109.732 35.9588C108.964 36.3942 108.082 36.6119 107.085 36.6119ZM104.679 31.0947C105.481 31.0947 107.091 31.0947 109.508 31.0947C109.428 30.3957 109.165 29.8343 108.718 29.4103C108.271 28.9864 107.721 28.7744 107.068 28.7744C106.438 28.7744 105.899 28.9864 105.452 29.4103C104.994 29.8343 104.736 30.3957 104.679 31.0947ZM119.123 29.2556C118.389 29.2671 117.748 29.4103 117.198 29.6853C116.636 29.9603 116.235 30.3499 115.995 30.8541C115.995 32.103 115.995 33.965 115.995 36.44C115.594 36.44 114.803 36.44 113.623 36.44C113.623 34.9046 113.623 31.828 113.623 27.2103C113.989 27.2103 114.711 27.2103 115.788 27.2103C115.788 27.5426 115.788 28.2015 115.788 29.1869C116.121 28.5681 116.539 28.0697 117.043 27.6916C117.547 27.3134 118.08 27.1129 118.642 27.09C118.894 27.09 119.054 27.0957 119.123 27.1072C119.123 27.5884 119.123 28.3046 119.123 29.2556ZM120.711 25.9384C120.711 25.5489 120.711 24.764 120.711 23.5838C121.112 23.5838 121.902 23.5838 123.082 23.5838C123.082 23.9848 123.082 24.7697 123.082 25.9384C122.681 25.9384 121.891 25.9384 120.711 25.9384ZM120.711 36.44C120.711 34.9046 120.711 31.828 120.711 27.2103C121.112 27.2103 121.902 27.2103 123.082 27.2103C123.082 28.7572 123.082 31.8338 123.082 36.44C122.681 36.44 121.891 36.44 120.711 36.44ZM126.045 36.44C126.045 35.2827 126.045 32.9739 126.045 29.5134C125.851 29.5134 125.449 29.5134 124.842 29.5134C124.842 29.2041 124.842 28.6025 124.842 27.7088C125.037 27.7088 125.438 27.7088 126.045 27.7088C126.045 27.6171 126.045 27.428 126.045 27.1416C126.045 26.0072 126.326 25.102 126.888 24.4259C127.449 23.7499 128.194 23.4119 129.122 23.4119C129.878 23.4119 130.64 23.5952 131.408 23.9619C131.293 24.3515 131.133 24.9416 130.927 25.7322C130.514 25.5145 130.084 25.4056 129.638 25.4056C128.813 25.4056 128.4 25.9556 128.4 27.0556C128.4 27.2046 128.4 27.4223 128.4 27.7088C128.778 27.7088 129.534 27.7088 130.669 27.7088C130.669 28.0067 130.669 28.6082 130.669 29.5134C130.291 29.5134 129.534 29.5134 128.4 29.5134C128.4 30.6593 128.4 32.9681 128.4 36.44C128.01 36.44 127.226 36.44 126.045 36.44ZM132.48 38.2275C132.927 38.3535 133.276 38.4166 133.528 38.4166C133.849 38.4166 134.107 38.2791 134.302 38.0041C134.508 37.7405 134.726 37.2192 134.955 36.44C134.142 34.389 132.927 31.3124 131.311 27.2103C131.724 27.2103 132.537 27.2103 133.752 27.2103C134.176 28.3447 135.007 30.6192 136.244 34.0338C136.611 32.8994 137.338 30.6249 138.427 27.2103C138.805 27.2103 139.556 27.2103 140.678 27.2103C140.037 29.0551 138.748 32.739 136.811 38.2619C136.582 38.9265 136.193 39.4593 135.643 39.8603C135.093 40.2614 134.428 40.4619 133.649 40.4619C133.259 40.4619 132.87 40.3989 132.48 40.2728C132.48 39.8259 132.48 39.1442 132.48 38.2275Z" fill="white"/>
<path d="M18.3005 25.6L15.919 33.9602" stroke="white" stroke-width="2.2" stroke-linecap="round" stroke-linejoin="round"/>
<path d="M13.2265 30.9734L10.84 28.5869L13.2265 26.1992" stroke="white" stroke-width="2.2" stroke-linecap="round" stroke-linejoin="round"/>
<path d="M20.9865 33.3611L23.3742 30.9733L20.9865 28.5869" stroke="white" stroke-width="2.2" stroke-linecap="round" stroke-linejoin="round"/>
<path d="M6 25.6V22.52C6 20.576 7.57596 19 9.52 19H12.6" stroke="white" stroke-width="1.76" stroke-linecap="round" stroke-linejoin="round"/>
<path d="M21.4 19L24.48 19C26.424 19 28 20.576 28 22.52L28 25.6" stroke="white" stroke-width="1.76" stroke-linecap="round" stroke-linejoin="round"/>
<path d="M28 34.4L28 37.48C28 39.424 26.424 41 24.48 41L21.4 41" stroke="white" stroke-width="1.76" stroke-linecap="round" stroke-linejoin="round"/>
<path d="M12.6 41L9.52 41C7.57595 41 6 39.424 6 37.48L6 34.4" stroke="white" stroke-width="1.76" stroke-linecap="round" stroke-linejoin="round"/>
</svg>
