<svg width="188" height="75" viewBox="0 0 188 75" fill="none" xmlns="http://www.w3.org/2000/svg">
<path d="M58.9406 36.5975C58.9406 34.4392 59.6625 32.5579 61.1062 30.9537C62.5646 29.3496 64.3365 28.5475 66.4219 28.5475C67.8365 28.5475 69.1271 28.9485 70.2937 29.7506C71.4458 30.5381 72.3281 31.5444 72.9406 32.7694C73.5531 33.9944 73.8594 35.285 73.8594 36.6412C73.8594 38.7996 73.1375 40.6808 71.6937 42.285C70.25 43.8746 68.4854 44.6694 66.4 44.6694C65.3208 44.6694 64.3146 44.4433 63.3812 43.9912C62.4333 43.5392 61.6385 42.934 60.9969 42.1756C60.3552 41.4173 59.8521 40.5569 59.4875 39.5944C59.1229 38.6173 58.9406 37.6183 58.9406 36.5975ZM66.4 43.2694C68.1208 43.2694 69.5354 42.5912 70.6437 41.235C71.7375 39.8787 72.2844 38.3329 72.2844 36.5975C72.2844 34.8329 71.7302 33.2871 70.6219 31.96C69.499 30.6329 68.0917 29.9694 66.4 29.9694C64.6646 29.9694 63.25 30.6475 62.1562 32.0037C61.0625 33.3454 60.5156 34.8767 60.5156 36.5975C60.5156 38.3767 61.0698 39.9298 62.1781 41.2569C63.2865 42.5985 64.6937 43.2694 66.4 43.2694ZM78.374 42.1319C78.374 43.3423 78.374 45.7412 78.374 49.3287C78.1261 49.3287 77.623 49.3287 76.8646 49.3287C76.8646 46.5871 76.8646 41.1037 76.8646 32.8787C77.0834 32.8787 77.5355 32.8787 78.2209 32.8787C78.2209 33.2579 78.2209 34.0162 78.2209 35.1537C78.7021 34.41 79.3292 33.8121 80.1021 33.36C80.8896 32.9079 81.7136 32.6819 82.574 32.6819C84.1344 32.6819 85.4469 33.2944 86.5115 34.5194C87.5761 35.7298 88.1084 37.1371 88.1084 38.7412C88.1084 40.4183 87.6126 41.8475 86.6209 43.0287C85.6292 44.1954 84.3605 44.7787 82.8146 44.7787C81.8813 44.7787 81.0282 44.5381 80.2553 44.0569C79.4824 43.5756 78.8553 42.934 78.374 42.1319ZM86.5553 38.7412C86.5553 37.4725 86.1324 36.3715 85.2865 35.4381C84.4407 34.5048 83.4199 34.0381 82.224 34.0381C81.4074 34.0381 80.5907 34.3298 79.774 34.9131C78.9574 35.511 78.4907 36.1819 78.374 36.9256C78.374 37.7131 78.374 38.909 78.374 40.5131C78.7386 41.359 79.2855 42.059 80.0146 42.6131C80.7438 43.1673 81.5386 43.4444 82.399 43.4444C83.624 43.4444 84.623 42.9704 85.3959 42.0225C86.1688 41.0746 86.5553 39.9808 86.5553 38.7412ZM96.0793 44.7787C94.4168 44.7787 93.0241 44.1881 91.9012 43.0069C90.7928 41.811 90.2387 40.3746 90.2387 38.6975C90.2387 37.035 90.7928 35.6204 91.9012 34.4537C93.0241 33.2725 94.4095 32.6819 96.0574 32.6819C97.7345 32.6819 99.1199 33.2725 100.214 34.4537C101.293 35.6204 101.832 37.0277 101.832 38.6756C101.832 38.9965 101.825 39.1933 101.811 39.2662C99.5939 39.2662 96.2689 39.2662 91.8355 39.2662C91.9376 40.5204 92.4043 41.5631 93.2355 42.3944C94.0522 43.211 95.022 43.6194 96.1449 43.6194C96.9033 43.6194 97.6251 43.4225 98.3105 43.0287C98.9814 42.6496 99.4553 42.1465 99.7324 41.5194C100.024 41.5923 100.469 41.709 101.067 41.8694C100.702 42.7152 100.061 43.4152 99.1418 43.9694C98.223 44.509 97.2022 44.7787 96.0793 44.7787ZM91.7918 38.1725C93.221 38.1725 96.0939 38.1725 100.411 38.1725C100.308 36.9183 99.8491 35.8902 99.0324 35.0881C98.2158 34.286 97.2314 33.885 96.0793 33.885C94.9272 33.885 93.9428 34.286 93.1262 35.0881C92.3095 35.9048 91.8647 36.9329 91.7918 38.1725ZM114.353 44.56C114.105 44.56 113.602 44.56 112.844 44.56C112.844 43.4808 112.844 41.3079 112.844 38.0412C112.844 36.6704 112.64 35.6642 112.231 35.0225C111.809 34.3954 111.174 34.0819 110.328 34.0819C109.424 34.0819 108.556 34.3954 107.725 35.0225C106.909 35.6642 106.354 36.459 106.063 37.4069C106.063 38.9965 106.063 41.3808 106.063 44.56C105.815 44.56 105.312 44.56 104.553 44.56C104.553 42.6204 104.553 38.7267 104.553 32.8787C104.787 32.8787 105.246 32.8787 105.931 32.8787C105.931 33.3308 105.931 34.2131 105.931 35.5256C106.413 34.6798 107.098 33.9944 107.988 33.4694C108.892 32.9444 109.862 32.6819 110.897 32.6819C112.137 32.6819 113.019 33.1194 113.544 33.9944C114.084 34.8548 114.353 36.1017 114.353 37.735C114.353 39.2517 114.353 41.5267 114.353 44.56ZM125.658 28.6569C126.372 30.6985 127.801 34.7746 129.945 40.885C130.66 38.8433 132.082 34.7673 134.211 28.6569C134.75 28.6569 135.829 28.6569 137.448 28.6569C136.442 31.311 134.437 36.6121 131.433 44.56C130.937 44.56 129.945 44.56 128.458 44.56C127.437 41.9058 125.417 36.6048 122.398 28.6569C122.938 28.6569 124.024 28.6569 125.658 28.6569ZM144.654 44.7787C142.816 44.7787 141.329 44.1954 140.191 43.0287C139.054 41.8475 138.485 40.4256 138.485 38.7631C138.485 37.0423 139.046 35.5912 140.169 34.41C141.307 33.2142 142.809 32.6162 144.675 32.6162C146.527 32.6162 148.015 33.2069 149.138 34.3881C150.246 35.5694 150.8 36.9912 150.8 38.6537C150.8 39.0621 150.779 39.3975 150.735 39.66C148.722 39.66 145.696 39.66 141.657 39.66C141.73 40.5496 142.065 41.2642 142.663 41.8037C143.261 42.3287 143.961 42.5912 144.763 42.5912C145.375 42.5912 145.951 42.4454 146.491 42.1537C147.016 41.8621 147.366 41.4756 147.541 40.9944C148.124 41.1548 148.985 41.3954 150.122 41.7162C149.685 42.635 148.985 43.3787 148.022 43.9475C147.045 44.5017 145.922 44.7787 144.654 44.7787ZM141.591 37.7569C142.612 37.7569 144.661 37.7569 147.738 37.7569C147.636 36.8673 147.3 36.1527 146.732 35.6131C146.163 35.0735 145.463 34.8037 144.632 34.8037C143.83 34.8037 143.144 35.0735 142.575 35.6131C141.992 36.1527 141.664 36.8673 141.591 37.7569ZM159.974 35.4162C159.041 35.4308 158.224 35.6131 157.524 35.9631C156.81 36.3131 156.299 36.809 155.993 37.4506C155.993 39.0402 155.993 41.41 155.993 44.56C155.483 44.56 154.476 44.56 152.974 44.56C152.974 42.6058 152.974 38.6902 152.974 32.8131C153.441 32.8131 154.36 32.8131 155.731 32.8131C155.731 33.236 155.731 34.0746 155.731 35.3287C156.154 34.5412 156.686 33.9069 157.328 33.4256C157.969 32.9444 158.647 32.6892 159.362 32.66C159.683 32.66 159.887 32.6673 159.974 32.6819C159.974 33.2944 159.974 34.2058 159.974 35.4162ZM161.995 31.1944C161.995 30.6985 161.995 29.6996 161.995 28.1975C162.506 28.1975 163.512 28.1975 165.014 28.1975C165.014 28.7079 165.014 29.7069 165.014 31.1944C164.504 31.1944 163.497 31.1944 161.995 31.1944ZM161.995 44.56C161.995 42.6058 161.995 38.6902 161.995 32.8131C162.506 32.8131 163.512 32.8131 165.014 32.8131C165.014 34.7819 165.014 38.6975 165.014 44.56C164.504 44.56 163.497 44.56 161.995 44.56ZM168.785 44.56C168.785 43.0871 168.785 40.1485 168.785 35.7444C168.537 35.7444 168.027 35.7444 167.254 35.7444C167.254 35.3506 167.254 34.585 167.254 33.4475C167.502 33.4475 168.012 33.4475 168.785 33.4475C168.785 33.3308 168.785 33.0902 168.785 32.7256C168.785 31.2819 169.142 30.1298 169.857 29.2694C170.571 28.409 171.519 27.9787 172.701 27.9787C173.663 27.9787 174.633 28.2121 175.61 28.6787C175.464 29.1746 175.26 29.9256 174.997 30.9319C174.472 30.6548 173.926 30.5162 173.357 30.5162C172.307 30.5162 171.782 31.2162 171.782 32.6162C171.782 32.8058 171.782 33.0829 171.782 33.4475C172.263 33.4475 173.226 33.4475 174.669 33.4475C174.669 33.8267 174.669 34.5923 174.669 35.7444C174.188 35.7444 173.226 35.7444 171.782 35.7444C171.782 37.2027 171.782 40.1412 171.782 44.56C171.286 44.56 170.287 44.56 168.785 44.56ZM176.975 46.835C177.543 46.9954 177.988 47.0756 178.309 47.0756C178.717 47.0756 179.045 46.9006 179.293 46.5506C179.556 46.2152 179.833 45.5517 180.125 44.56C179.089 41.9496 177.543 38.034 175.487 32.8131C176.012 32.8131 177.048 32.8131 178.593 32.8131C179.133 34.2569 180.19 37.1517 181.765 41.4975C182.232 40.0537 183.158 37.159 184.543 32.8131C185.025 32.8131 185.98 32.8131 187.409 32.8131C186.592 35.161 184.952 39.8496 182.487 46.8787C182.195 47.7246 181.7 48.4027 181 48.9131C180.3 49.4235 179.454 49.6787 178.462 49.6787C177.966 49.6787 177.47 49.5985 176.975 49.4381C176.975 48.8694 176.975 48.0017 176.975 46.835Z" fill="#1A1A1A"/>
<path d="M31.6551 31.4L28.6242 42.0402" stroke="#1A1A1A" stroke-width="2.8" stroke-linecap="round" stroke-linejoin="round"/>
<path d="M25.1973 38.2388L22.16 35.2015L25.1973 32.1625" stroke="#1A1A1A" stroke-width="2.8" stroke-linecap="round" stroke-linejoin="round"/>
<path d="M35.0737 41.2777L38.1126 38.2388L35.0737 35.2015" stroke="#1A1A1A" stroke-width="2.8" stroke-linecap="round" stroke-linejoin="round"/>
<path d="M16 31.4V27.48C16 25.0058 18.0058 23 20.48 23H24.4" stroke="#1A1A1A" stroke-width="2.24" stroke-linecap="round" stroke-linejoin="round"/>
<path d="M35.6 23L39.52 23C41.9942 23 44 25.0058 44 27.48L44 31.4" stroke="#1A1A1A" stroke-width="2.24" stroke-linecap="round" stroke-linejoin="round"/>
<path d="M44 42.6L44 46.52C44 48.9942 41.9942 51 39.52 51L35.6 51" stroke="#1A1A1A" stroke-width="2.24" stroke-linecap="round" stroke-linejoin="round"/>
<path d="M24.4 51L20.48 51C18.0058 51 16 48.9942 16 46.52L16 42.6" stroke="#1A1A1A" stroke-width="2.24" stroke-linecap="round" stroke-linejoin="round"/>
<path d="M58.9406 36.5975C58.9406 34.4392 59.6625 32.5579 61.1062 30.9537C62.5646 29.3496 64.3365 28.5475 66.4219 28.5475C67.8365 28.5475 69.1271 28.9485 70.2937 29.7506C71.4458 30.5381 72.3281 31.5444 72.9406 32.7694C73.5531 33.9944 73.8594 35.285 73.8594 36.6412C73.8594 38.7996 73.1375 40.6808 71.6937 42.285C70.25 43.8746 68.4854 44.6694 66.4 44.6694C65.3208 44.6694 64.3146 44.4433 63.3812 43.9912C62.4333 43.5392 61.6385 42.934 60.9969 42.1756C60.3552 41.4173 59.8521 40.5569 59.4875 39.5944C59.1229 38.6173 58.9406 37.6183 58.9406 36.5975ZM66.4 43.2694C68.1208 43.2694 69.5354 42.5912 70.6437 41.235C71.7375 39.8787 72.2844 38.3329 72.2844 36.5975C72.2844 34.8329 71.7302 33.2871 70.6219 31.96C69.499 30.6329 68.0917 29.9694 66.4 29.9694C64.6646 29.9694 63.25 30.6475 62.1562 32.0037C61.0625 33.3454 60.5156 34.8767 60.5156 36.5975C60.5156 38.3767 61.0698 39.9298 62.1781 41.2569C63.2865 42.5985 64.6937 43.2694 66.4 43.2694ZM78.374 42.1319C78.374 43.3423 78.374 45.7412 78.374 49.3287C78.1261 49.3287 77.623 49.3287 76.8646 49.3287C76.8646 46.5871 76.8646 41.1037 76.8646 32.8787C77.0834 32.8787 77.5355 32.8787 78.2209 32.8787C78.2209 33.2579 78.2209 34.0162 78.2209 35.1537C78.7021 34.41 79.3292 33.8121 80.1021 33.36C80.8896 32.9079 81.7136 32.6819 82.574 32.6819C84.1344 32.6819 85.4469 33.2944 86.5115 34.5194C87.5761 35.7298 88.1084 37.1371 88.1084 38.7412C88.1084 40.4183 87.6126 41.8475 86.6209 43.0287C85.6292 44.1954 84.3605 44.7787 82.8146 44.7787C81.8813 44.7787 81.0282 44.5381 80.2553 44.0569C79.4824 43.5756 78.8553 42.934 78.374 42.1319ZM86.5553 38.7412C86.5553 37.4725 86.1324 36.3715 85.2865 35.4381C84.4407 34.5048 83.4199 34.0381 82.224 34.0381C81.4074 34.0381 80.5907 34.3298 79.774 34.9131C78.9574 35.511 78.4907 36.1819 78.374 36.9256C78.374 37.7131 78.374 38.909 78.374 40.5131C78.7386 41.359 79.2855 42.059 80.0146 42.6131C80.7438 43.1673 81.5386 43.4444 82.399 43.4444C83.624 43.4444 84.623 42.9704 85.3959 42.0225C86.1688 41.0746 86.5553 39.9808 86.5553 38.7412ZM96.0793 44.7787C94.4168 44.7787 93.0241 44.1881 91.9012 43.0069C90.7928 41.811 90.2387 40.3746 90.2387 38.6975C90.2387 37.035 90.7928 35.6204 91.9012 34.4537C93.0241 33.2725 94.4095 32.6819 96.0574 32.6819C97.7345 32.6819 99.1199 33.2725 100.214 34.4537C101.293 35.6204 101.832 37.0277 101.832 38.6756C101.832 38.9965 101.825 39.1933 101.811 39.2662C99.5939 39.2662 96.2689 39.2662 91.8355 39.2662C91.9376 40.5204 92.4043 41.5631 93.2355 42.3944C94.0522 43.211 95.022 43.6194 96.1449 43.6194C96.9033 43.6194 97.6251 43.4225 98.3105 43.0287C98.9814 42.6496 99.4553 42.1465 99.7324 41.5194C100.024 41.5923 100.469 41.709 101.067 41.8694C100.702 42.7152 100.061 43.4152 99.1418 43.9694C98.223 44.509 97.2022 44.7787 96.0793 44.7787ZM91.7918 38.1725C93.221 38.1725 96.0939 38.1725 100.411 38.1725C100.308 36.9183 99.8491 35.8902 99.0324 35.0881C98.2158 34.286 97.2314 33.885 96.0793 33.885C94.9272 33.885 93.9428 34.286 93.1262 35.0881C92.3095 35.9048 91.8647 36.9329 91.7918 38.1725ZM114.353 44.56C114.105 44.56 113.602 44.56 112.844 44.56C112.844 43.4808 112.844 41.3079 112.844 38.0412C112.844 36.6704 112.64 35.6642 112.231 35.0225C111.809 34.3954 111.174 34.0819 110.328 34.0819C109.424 34.0819 108.556 34.3954 107.725 35.0225C106.909 35.6642 106.354 36.459 106.063 37.4069C106.063 38.9965 106.063 41.3808 106.063 44.56C105.815 44.56 105.312 44.56 104.553 44.56C104.553 42.6204 104.553 38.7267 104.553 32.8787C104.787 32.8787 105.246 32.8787 105.931 32.8787C105.931 33.3308 105.931 34.2131 105.931 35.5256C106.413 34.6798 107.098 33.9944 107.988 33.4694C108.892 32.9444 109.862 32.6819 110.897 32.6819C112.137 32.6819 113.019 33.1194 113.544 33.9944C114.084 34.8548 114.353 36.1017 114.353 37.735C114.353 39.2517 114.353 41.5267 114.353 44.56ZM125.658 28.6569C126.372 30.6985 127.801 34.7746 129.945 40.885C130.66 38.8433 132.082 34.7673 134.211 28.6569C134.75 28.6569 135.829 28.6569 137.448 28.6569C136.442 31.311 134.437 36.6121 131.433 44.56C130.937 44.56 129.945 44.56 128.458 44.56C127.437 41.9058 125.417 36.6048 122.398 28.6569C122.938 28.6569 124.024 28.6569 125.658 28.6569ZM144.654 44.7787C142.816 44.7787 141.329 44.1954 140.191 43.0287C139.054 41.8475 138.485 40.4256 138.485 38.7631C138.485 37.0423 139.046 35.5912 140.169 34.41C141.307 33.2142 142.809 32.6162 144.675 32.6162C146.527 32.6162 148.015 33.2069 149.138 34.3881C150.246 35.5694 150.8 36.9912 150.8 38.6537C150.8 39.0621 150.779 39.3975 150.735 39.66C148.722 39.66 145.696 39.66 141.657 39.66C141.73 40.5496 142.065 41.2642 142.663 41.8037C143.261 42.3287 143.961 42.5912 144.763 42.5912C145.375 42.5912 145.951 42.4454 146.491 42.1537C147.016 41.8621 147.366 41.4756 147.541 40.9944C148.124 41.1548 148.985 41.3954 150.122 41.7162C149.685 42.635 148.985 43.3787 148.022 43.9475C147.045 44.5017 145.922 44.7787 144.654 44.7787ZM141.591 37.7569C142.612 37.7569 144.661 37.7569 147.738 37.7569C147.636 36.8673 147.3 36.1527 146.732 35.6131C146.163 35.0735 145.463 34.8037 144.632 34.8037C143.83 34.8037 143.144 35.0735 142.575 35.6131C141.992 36.1527 141.664 36.8673 141.591 37.7569ZM159.974 35.4162C159.041 35.4308 158.224 35.6131 157.524 35.9631C156.81 36.3131 156.299 36.809 155.993 37.4506C155.993 39.0402 155.993 41.41 155.993 44.56C155.483 44.56 154.476 44.56 152.974 44.56C152.974 42.6058 152.974 38.6902 152.974 32.8131C153.441 32.8131 154.36 32.8131 155.731 32.8131C155.731 33.236 155.731 34.0746 155.731 35.3287C156.154 34.5412 156.686 33.9069 157.328 33.4256C157.969 32.9444 158.647 32.6892 159.362 32.66C159.683 32.66 159.887 32.6673 159.974 32.6819C159.974 33.2944 159.974 34.2058 159.974 35.4162ZM161.995 31.1944C161.995 30.6985 161.995 29.6996 161.995 28.1975C162.506 28.1975 163.512 28.1975 165.014 28.1975C165.014 28.7079 165.014 29.7069 165.014 31.1944C164.504 31.1944 163.497 31.1944 161.995 31.1944ZM161.995 44.56C161.995 42.6058 161.995 38.6902 161.995 32.8131C162.506 32.8131 163.512 32.8131 165.014 32.8131C165.014 34.7819 165.014 38.6975 165.014 44.56C164.504 44.56 163.497 44.56 161.995 44.56ZM168.785 44.56C168.785 43.0871 168.785 40.1485 168.785 35.7444C168.537 35.7444 168.027 35.7444 167.254 35.7444C167.254 35.3506 167.254 34.585 167.254 33.4475C167.502 33.4475 168.012 33.4475 168.785 33.4475C168.785 33.3308 168.785 33.0902 168.785 32.7256C168.785 31.2819 169.142 30.1298 169.857 29.2694C170.571 28.409 171.519 27.9787 172.701 27.9787C173.663 27.9787 174.633 28.2121 175.61 28.6787C175.464 29.1746 175.26 29.9256 174.997 30.9319C174.472 30.6548 173.926 30.5162 173.357 30.5162C172.307 30.5162 171.782 31.2162 171.782 32.6162C171.782 32.8058 171.782 33.0829 171.782 33.4475C172.263 33.4475 173.226 33.4475 174.669 33.4475C174.669 33.8267 174.669 34.5923 174.669 35.7444C174.188 35.7444 173.226 35.7444 171.782 35.7444C171.782 37.2027 171.782 40.1412 171.782 44.56C171.286 44.56 170.287 44.56 168.785 44.56ZM176.975 46.835C177.543 46.9954 177.988 47.0756 178.309 47.0756C178.717 47.0756 179.045 46.9006 179.293 46.5506C179.556 46.2152 179.833 45.5517 180.125 44.56C179.089 41.9496 177.543 38.034 175.487 32.8131C176.012 32.8131 177.048 32.8131 178.593 32.8131C179.133 34.2569 180.19 37.1517 181.765 41.4975C182.232 40.0537 183.158 37.159 184.543 32.8131C185.025 32.8131 185.98 32.8131 187.409 32.8131C186.592 35.161 184.952 39.8496 182.487 46.8787C182.195 47.7246 181.7 48.4027 181 48.9131C180.3 49.4235 179.454 49.6787 178.462 49.6787C177.966 49.6787 177.47 49.5985 176.975 49.4381C176.975 48.8694 176.975 48.0017 176.975 46.835Z" fill="#1A1A1A"/>
<path d="M31.6551 31.4L28.6242 42.0402" stroke="#1A1A1A" stroke-width="2.8" stroke-linecap="round" stroke-linejoin="round"/>
<path d="M25.1973 38.2388L22.16 35.2015L25.1973 32.1625" stroke="#1A1A1A" stroke-width="2.8" stroke-linecap="round" stroke-linejoin="round"/>
<path d="M35.0737 41.2777L38.1126 38.2388L35.0737 35.2015" stroke="#1A1A1A" stroke-width="2.8" stroke-linecap="round" stroke-linejoin="round"/>
<path d="M16 31.4V27.48C16 25.0058 18.0058 23 20.48 23H24.4" stroke="#1A1A1A" stroke-width="2.24" stroke-linecap="round" stroke-linejoin="round"/>
<path d="M35.6 23L39.52 23C41.9942 23 44 25.0058 44 27.48L44 31.4" stroke="#1A1A1A" stroke-width="2.24" stroke-linecap="round" stroke-linejoin="round"/>
<path d="M44 42.6L44 46.52C44 48.9942 41.9942 51 39.52 51L35.6 51" stroke="#1A1A1A" stroke-width="2.24" stroke-linecap="round" stroke-linejoin="round"/>
<path d="M24.4 51L20.48 51C18.0058 51 16 48.9942 16 46.52L16 42.6" stroke="#1A1A1A" stroke-width="2.24" stroke-linecap="round" stroke-linejoin="round"/>
</svg>
