<svg width="114" height="132" viewBox="0 0 114 132" fill="none" xmlns="http://www.w3.org/2000/svg">
<path d="M75.75 0.25H38.25V12.75H75.75V0.25ZM50.75 81.5H63.25V44H50.75V81.5ZM100.938 40.1875L109.813 31.3125C107.125 28.125 104.188 25.125 101 22.5L92.125 31.375C82.4375 23.625 70.25 19 57 19C25.9375 19 0.75 44.1875 0.75 75.25C0.75 106.312 25.875 131.5 57 131.5C88.125 131.5 113.25 106.312 113.25 75.25C113.25 62 108.625 49.8125 100.938 40.1875ZM57 119C32.8125 119 13.25 99.4375 13.25 75.25C13.25 51.0625 32.8125 31.5 57 31.5C81.1875 31.5 100.75 51.0625 100.75 75.25C100.75 99.4375 81.1875 119 57 119Z" fill="black"/>
</svg>
