<svg width="22" height="22" viewBox="0 0 22 22" fill="none" xmlns="http://www.w3.org/2000/svg">
<path d="M8.25 9.16665L5.5 4.58331H16.5L13.75 9.16665H8.25ZM16.5 3.66665H5.5V1.83331H16.5V3.66665ZM8.25 20.1666V10.0833H13.75V20.1666H8.25ZM11 11.9166C10.7569 11.9166 10.5237 12.0132 10.3518 12.1851C10.1799 12.357 10.0833 12.5902 10.0833 12.8333C10.0833 13.0764 10.1799 13.3096 10.3518 13.4815C10.5237 13.6534 10.7569 13.75 11 13.75C11.2431 13.75 11.4763 13.6534 11.6482 13.4815C11.8201 13.3096 11.9167 13.0764 11.9167 12.8333C11.9167 12.5902 11.8201 12.357 11.6482 12.1851C11.4763 12.0132 11.2431 11.9166 11 11.9166Z" fill="white"/>
</svg>
